<svg width="22" height="19" viewBox="0 0 22 19" fill="none" xmlns="http://www.w3.org/2000/svg">
<path fill-rule="evenodd" clip-rule="evenodd" d="M7.65217 4.78261V1.91304C7.65217 0.856499 8.50867 0 9.56522 0H20.087C21.1435 0 22 0.856499 22 1.91304V13.3913C22 14.4479 21.1435 15.3043 20.087 15.3043C20.087 16.8892 18.8022 18.1739 17.2174 18.1739C15.6326 18.1739 14.3478 16.8892 14.3478 15.3043H7.65217C7.65217 16.8892 6.36743 18.1739 4.78261 18.1739C3.19779 18.1739 1.91304 16.8892 1.91304 15.3043C0.856499 15.3043 0 14.4479 0 13.3913V11.4783C0 10.6884 0.319109 9.97311 0.835433 9.45423C0.852094 9.31144 0.902314 9.16827 0.991403 9.03464L3.25817 5.63449C3.61297 5.10228 4.21028 4.78261 4.84992 4.78261H7.65217ZM9.56522 1.91304H20.087V13.3913H9.56522V1.91304ZM7.65217 6.69565H4.84992L3.57455 8.6087H7.65217V6.69565ZM7.65217 10.5217H2.86957C2.34129 10.5217 1.91304 10.95 1.91304 11.4783L1.91304 13.3913H7.65217V10.5217ZM17.2174 15.3043C16.8795 15.3043 16.6125 15.3224 16.4059 15.3558C16.3503 15.3649 16.3033 15.3743 16.2641 15.3835C16.3043 15.8747 16.7158 16.2609 17.2174 16.2609C17.719 16.2609 18.1305 15.8747 18.1707 15.3835C18.1315 15.3743 18.0845 15.3649 18.0289 15.3558C17.8223 15.3224 17.5553 15.3043 17.2174 15.3043ZM4.78261 15.3043C4.44475 15.3043 4.17773 15.3224 3.97113 15.3558C3.91547 15.3649 3.86851 15.3743 3.82931 15.3835C3.86953 15.8747 4.28097 16.2609 4.78261 16.2609C5.28424 16.2609 5.69569 15.8747 5.73591 15.3835C5.6967 15.3743 5.64974 15.3649 5.59409 15.3558C5.38749 15.3224 5.12047 15.3043 4.78261 15.3043Z" fill="white"/>
</svg>
