<svg width="24" height="24" viewBox="0 0 24 24" fill="none" xmlns="http://www.w3.org/2000/svg">
<path d="M17.9706 8.07112C18.3611 7.6806 18.3611 7.04743 17.9706 6.65691C17.5801 6.26638 16.9469 6.26638 16.5564 6.65691L12.3137 10.8995L8.07109 6.65691C7.68057 6.26638 7.0474 6.26638 6.65688 6.65691C6.26635 7.04743 6.26635 7.6806 6.65688 8.07112L10.8995 12.3138L6.65688 16.5564C6.26635 16.9469 6.26635 17.5801 6.65688 17.9706C7.0474 18.3611 7.68057 18.3611 8.07109 17.9706L12.3137 13.728L16.5564 17.9706C16.9469 18.3611 17.5801 18.3611 17.9706 17.9706C18.3611 17.5801 18.3611 16.9469 17.9706 16.5564L13.7279 12.3138L17.9706 8.07112Z" fill="#FB4141"/>
</svg>
